<svg width="51" height="35" viewBox="0 0 51 35" fill="none" xmlns="http://www.w3.org/2000/svg">
<rect x="1.41406" y="0.5" width="48.7807" height="33.2857" rx="5.5" fill="white" stroke="#D9D9D9"/>
<path fill-rule="evenodd" clip-rule="evenodd" d="M22.311 26.3545L22.6342 24.2843L21.9143 24.2674H18.4766L20.8656 8.99079C20.8731 8.94453 20.8971 8.90159 20.9323 8.87104C20.9676 8.84049 21.0126 8.82373 21.0597 8.82373H26.8562C28.7807 8.82373 30.1087 9.2275 30.8019 10.0246C31.127 10.3985 31.334 10.7893 31.4342 11.2193C31.5393 11.6705 31.541 12.2096 31.4386 12.8672L31.4311 12.915V13.3364L31.7562 13.5221C32.0299 13.6686 32.2475 13.8362 32.4143 14.028C32.6923 14.3478 32.8722 14.7542 32.9481 15.2358C33.0267 15.7312 33.0008 16.3209 32.8722 16.9884C32.7238 17.7562 32.4841 18.4249 32.1602 18.972C31.8625 19.4761 31.4831 19.8944 31.0325 20.2184C30.6023 20.5263 30.0914 20.7601 29.5136 20.9097C28.9536 21.0566 28.3152 21.1308 27.615 21.1308H27.1639C26.8415 21.1308 26.5282 21.248 26.2822 21.458C26.0355 21.6723 25.8725 21.9652 25.8224 22.2856L25.7883 22.472L25.2173 26.1209L25.1915 26.2548C25.1846 26.2972 25.1728 26.3183 25.1555 26.3327C25.1401 26.3458 25.1179 26.3545 25.0963 26.3545H22.311Z" fill="#28356A"/>
<path fill-rule="evenodd" clip-rule="evenodd" d="M32.0632 12.9639C32.0461 13.0754 32.0262 13.1894 32.004 13.3065C31.2396 17.2646 28.6243 18.632 25.2842 18.632H23.5835C23.175 18.632 22.8307 18.931 22.7672 19.3374L21.6499 26.4849C21.6085 26.7518 21.8124 26.9922 22.0793 26.9922H25.0957C25.4528 26.9922 25.7563 26.7305 25.8125 26.3753L25.8421 26.2208L26.41 22.5862L26.4466 22.3868C26.5021 22.0304 26.8063 21.7685 27.1634 21.7685H27.6145C30.5368 21.7685 32.8247 20.5721 33.4933 17.1094C33.7725 15.663 33.628 14.4552 32.8889 13.6057C32.6652 13.3497 32.3878 13.137 32.0632 12.9639Z" fill="#298FC2"/>
<path fill-rule="evenodd" clip-rule="evenodd" d="M31.2621 12.6419C31.1452 12.6075 31.0248 12.5765 30.9012 12.5484C30.7769 12.5209 30.6497 12.4967 30.5186 12.4754C30.0601 12.4007 29.5576 12.3652 29.0194 12.3652H24.4762C24.3642 12.3652 24.2579 12.3907 24.1629 12.4368C23.9532 12.5384 23.7976 12.7385 23.7599 12.9834L22.7933 19.157L22.7656 19.337C22.8292 18.9306 23.1734 18.6315 23.5819 18.6315H25.2826C28.6227 18.6315 31.238 17.2635 32.0024 13.3061C32.0253 13.189 32.0445 13.075 32.0616 12.9635C31.8683 12.8599 31.6588 12.7714 31.4333 12.696C31.3775 12.6774 31.3201 12.6594 31.2621 12.6419Z" fill="#22284F"/>
<path fill-rule="evenodd" clip-rule="evenodd" d="M23.7615 12.9836C23.7992 12.7387 23.9548 12.5386 24.1644 12.4377C24.2602 12.3915 24.3657 12.366 24.4777 12.366H29.021C29.5592 12.366 30.0617 12.4016 30.5202 12.4763C30.6512 12.4974 30.7785 12.5219 30.9027 12.5493C31.0263 12.5772 31.1468 12.6085 31.2637 12.6427C31.3216 12.6601 31.3791 12.6783 31.4354 12.6963C31.6609 12.7717 31.8705 12.8609 32.0639 12.9637C32.2913 11.501 32.062 10.5052 31.2778 9.60335C30.4132 8.61044 28.8529 8.18555 26.8563 8.18555H21.0596C20.6518 8.18555 20.3039 8.48457 20.2408 8.89166L17.8265 24.3254C17.7789 24.6307 18.0124 24.9061 18.3177 24.9061H21.8963L23.7615 12.9836Z" fill="#28356A"/>
</svg>
