<svg width="70" height="70" viewBox="0 0 70 70" fill="none" xmlns="http://www.w3.org/2000/svg">
<path d="M60.7179 55.1588C58.5641 55.1588 56.7692 53.7483 55.3333 52.62C53.2692 51.0215 51.2051 49.0469 48.8718 46.6961C47.3462 45.0976 45.641 44.3454 43.5769 44.3454C38.1026 44.3454 32.7179 44.3454 27.4231 44.3454C25.359 44.3454 23.7436 45.0976 22.0385 46.6961C19.8846 48.8588 17.1026 51.4916 14.141 53.5603C11.359 55.4409 9.38461 55.3469 8.21795 54.8767C6.51282 54.2185 5.25641 52.4319 4.71795 49.7991C4.44872 48.3886 4.26923 46.9782 4.17949 45.5678C4.17949 44.9095 4.08974 44.2513 4 43.6872C4.26923 35.9767 5.97436 29.3946 9.38462 23.5648C10.8205 21.026 12.7051 18.6752 14.6795 16.7946C18.0897 13.5976 22.3974 13.2215 26.6154 15.6663C32.6282 19.3334 38.4615 19.3334 44.4744 15.6663C48.6026 13.1275 52.9103 13.5036 56.4103 16.7006C58.3846 18.5812 60.1795 20.7439 61.5256 23.0946C65.7436 30.4289 67.5385 38.7036 66.7308 47.5424C66.5513 49.7051 66.282 52.9961 63.141 54.5006C62.3333 54.8767 61.6154 55.0648 60.8077 55.0648L60.7179 55.1588ZM5.4359 43.4991C5.4359 44.1573 5.61539 44.8155 5.61539 45.3797C5.70513 46.6961 5.88461 48.1066 6.15385 49.423C6.60256 51.5857 7.5 52.9961 8.75641 53.4663C10.0128 53.9364 11.5385 53.4663 13.3333 52.3379C16.2051 50.3633 18.8974 47.7304 21.0513 45.6618C22.9359 43.7812 25 42.8409 27.4231 42.9349C32.7179 42.9349 38.1026 42.9349 43.5769 42.9349C46.0897 42.9349 48.1538 43.7812 49.9487 45.7558C52.1923 48.1066 54.2564 49.9872 56.2308 51.4916C58.3846 53.1842 60.1795 54.3125 62.3333 53.2782C64.5769 52.2439 64.9359 49.9872 65.1154 47.4483C65.8333 38.7976 64.1282 30.8991 60.0897 23.7528C58.8333 21.4961 57.1282 19.4275 55.2436 17.6409C52.282 14.914 48.6923 14.5379 45.1026 16.7006C38.641 20.6498 32.2692 20.6498 25.8077 16.7006C22.2179 14.5379 18.6282 14.82 15.6667 17.6409C13.7821 19.4275 12.0769 21.6842 10.641 24.0349C7.41026 29.6767 5.70513 35.9767 5.4359 43.4051V43.4991Z" fill="#1ED760" stroke="#1ED760" stroke-width="1.2" stroke-miterlimit="10"/>
<path d="M50.4249 26.7617C50.4249 27.5487 49.8062 28.1364 49.0505 28.1364C48.2948 28.1364 47.6762 27.5487 47.6762 26.7617C47.6762 25.9748 48.2948 25.3871 49.0505 25.3871C49.8062 25.3871 50.4249 25.9748 50.4249 26.7617Z" fill="#1ED760" stroke="#1ED760" stroke-width="1.2"/>
<path d="M50.4249 34.0962C50.4249 34.8831 49.8062 35.4708 49.0505 35.4708C48.2948 35.4708 47.6762 34.8831 47.6762 34.0962C47.6762 33.3093 48.2948 32.7216 49.0505 32.7216C49.8062 32.7216 50.4249 33.3093 50.4249 34.0962Z" fill="#1ED760" stroke="#1ED760" stroke-width="1.2"/>
<path d="M54.2843 30.429C54.2843 31.2159 53.6656 31.8036 52.9099 31.8036C52.1542 31.8036 51.5355 31.2159 51.5355 30.429C51.5355 29.6421 52.1542 29.0543 52.9099 29.0543C53.6656 29.0543 54.2843 29.6421 54.2843 30.429Z" fill="#1ED760" stroke="#1ED760" stroke-width="1.2"/>
<path d="M46.835 30.4287C46.835 31.2156 46.2164 31.8034 45.4607 31.8034C44.705 31.8034 44.0863 31.2156 44.0863 30.4287C44.0863 29.6418 44.705 29.0541 45.4607 29.0541C46.2164 29.0541 46.835 29.6418 46.835 30.4287Z" fill="#1ED760" stroke="#1ED760" stroke-width="1.2"/>
<path d="M18.8535 30.6567H28.8535" stroke="#1ED760" stroke-width="2.5" stroke-linecap="round" stroke-linejoin="round"/>
<path d="M23.8535 35.6567L23.8535 25.6567" stroke="#1ED760" stroke-width="2.5" stroke-linecap="round" stroke-linejoin="round"/>
</svg>
