<svg width="43" height="28" viewBox="0 0 43 28" fill="none" xmlns="http://www.w3.org/2000/svg">
<g clip-path="url(#clip0_12035_69457)">
<path d="M39.1492 0H3.85085C3.70384 0 3.55656 0 3.40981 0.000871985C3.28576 0.00177039 3.162 0.00317086 3.03824 0.00660595C2.76832 0.014031 2.49609 0.0302288 2.22955 0.0789543C1.95875 0.128525 1.70676 0.209382 1.46092 0.336692C1.21925 0.461703 0.997986 0.625213 0.806241 0.820327C0.614413 1.01544 0.453657 1.24012 0.330779 1.48621C0.205588 1.73625 0.126042 1.99264 0.0776437 2.2683C0.029482 2.53949 0.0134507 2.81633 0.00617666 3.09058C0.00285141 3.21646 0.00142518 3.34235 0.000617251 3.4682C-0.000240042 3.61779 4.57223e-05 3.76727 4.57223e-05 3.91712V24.0832C4.57223e-05 24.233 -0.000240042 24.3822 0.000617251 24.5321C0.00142518 24.658 0.00285141 24.7839 0.00617666 24.9097C0.0134507 25.1838 0.029482 25.4606 0.0776437 25.7317C0.126042 26.0075 0.205588 26.2637 0.330779 26.5138C0.453657 26.7599 0.614413 26.9849 0.806241 27.1797C0.997986 27.3751 1.21925 27.5386 1.46092 27.6633C1.70676 27.791 1.95875 27.8718 2.22955 27.9214C2.49609 27.9698 2.76832 27.9863 3.03824 27.9937C3.162 27.9966 3.28576 27.9983 3.40981 27.9988C3.55656 28 3.70384 28 3.85085 28H39.1492C39.296 28 39.4432 28 39.5899 27.9988C39.7137 27.9983 39.8375 27.9966 39.9618 27.9937C40.2312 27.9863 40.5033 27.9698 40.7705 27.9214C41.041 27.8718 41.293 27.791 41.5389 27.6633C41.7808 27.5386 42.0014 27.3751 42.1936 27.1797C42.3851 26.9849 42.5458 26.7599 42.669 26.5138C42.7945 26.2637 42.874 26.0075 42.9221 25.7317C42.9703 25.4606 42.9859 25.1838 42.9932 24.9097C42.9966 24.7839 42.9983 24.658 42.9989 24.5321C43 24.3822 43 24.233 43 24.0832V3.91712C43 3.76727 43 3.61779 42.9989 3.4682C42.9983 3.34235 42.9966 3.21646 42.9932 3.09058C42.9859 2.81633 42.9703 2.53949 42.9221 2.2683C42.874 1.99264 42.7945 1.73625 42.669 1.48621C42.5458 1.24012 42.3851 1.01544 42.1936 0.820327C42.0014 0.625213 41.7808 0.461703 41.5389 0.336692C41.293 0.209382 41.041 0.128525 40.7705 0.0789543C40.5033 0.0302288 40.2312 0.014031 39.9618 0.00660595C39.8375 0.00317086 39.7137 0.00177039 39.5899 0.000871985C39.4432 0 39.296 0 39.1492 0Z" fill="black"/>
<path d="M39.1496 0.93335L39.5838 0.934195C39.7014 0.935041 39.8191 0.936335 39.9374 0.939612C40.1431 0.945267 40.3838 0.956603 40.6082 0.997507C40.8032 1.03323 40.9667 1.08756 41.1237 1.16884C41.2787 1.24893 41.4206 1.35388 41.5446 1.47979C41.669 1.60655 41.7724 1.75119 41.8521 1.91055C41.9316 2.06896 41.9847 2.23454 42.0196 2.43435C42.0597 2.66006 42.0708 2.90554 42.0764 3.11611C42.0796 3.23497 42.0812 3.35382 42.0817 3.4755C42.0828 3.62266 42.0828 3.76973 42.0828 3.91718V24.0832C42.0828 24.2307 42.0828 24.3775 42.0817 24.5278C42.0812 24.6466 42.0796 24.7655 42.0764 24.8845C42.0708 25.0948 42.0597 25.3401 42.0191 25.5685C41.9847 25.7656 41.9316 25.9312 41.8517 26.0904C41.7722 26.2493 41.669 26.3938 41.5451 26.5198C41.4204 26.6466 41.2789 26.7513 41.1221 26.8321C40.9663 26.913 40.8031 26.9673 40.61 27.0026C40.3811 27.0441 40.1303 27.0555 39.9414 27.0607C39.8226 27.0634 39.7044 27.0651 39.5832 27.0657C39.4389 27.0668 39.294 27.0668 39.1496 27.0668H3.85123C3.84931 27.0668 3.84744 27.0668 3.84549 27.0668C3.70277 27.0668 3.55976 27.0668 3.41443 27.0656C3.29594 27.0651 3.17771 27.0635 3.06341 27.0608C2.87023 27.0555 2.61931 27.0441 2.39228 27.0029C2.19752 26.9673 2.03424 26.913 1.8764 26.831C1.72107 26.7509 1.57967 26.6464 1.45495 26.5193C1.33118 26.3937 1.22833 26.2496 1.14881 26.0904C1.06922 25.9314 1.01596 25.7653 0.980943 25.5658C0.940466 25.3379 0.929347 25.0935 0.923791 24.8847C0.920619 24.7652 0.919294 24.6456 0.91854 24.5268L0.917969 24.1759L0.917995 24.0832V3.91718L0.917969 3.82454L0.918514 3.47439C0.919294 3.35483 0.920619 3.23528 0.923791 3.11582C0.929347 2.90678 0.940466 2.66231 0.981279 2.43248C1.01599 2.23485 1.06922 2.06875 1.14923 1.90892C1.22813 1.75093 1.33116 1.60671 1.45557 1.48019C1.57949 1.3541 1.72136 1.24927 1.87767 1.16842C2.03383 1.08753 2.19741 1.03323 2.39217 0.997586C2.61658 0.956576 2.85742 0.945267 3.06369 0.939586C3.18127 0.936335 3.29885 0.935041 3.41555 0.934222L3.85123 0.93335H39.1496Z" fill="white"/>
<path d="M11.7383 9.41751C12.1065 8.94911 12.3564 8.32018 12.2905 7.67749C11.7515 7.70475 11.0938 8.03916 10.713 8.50793C10.3711 8.90936 10.0685 9.56462 10.1474 10.1804C10.7524 10.2337 11.3569 9.87277 11.7383 9.41751Z" fill="black"/>
<path d="M12.2837 10.3007C11.4051 10.2475 10.658 10.8079 10.2384 10.8079C9.81863 10.8079 9.1761 10.3275 8.48116 10.3405C7.57665 10.354 6.73736 10.8742 6.27836 11.7015C5.33427 13.3566 6.02921 15.8116 6.94729 17.1596C7.39313 17.8265 7.93044 18.5608 8.63843 18.5344C9.30737 18.5077 9.56956 18.0938 10.3827 18.0938C11.1952 18.0938 11.4314 18.5344 12.1395 18.5211C12.8738 18.5077 13.3329 17.8538 13.7787 17.1863C14.2902 16.4261 14.4996 15.692 14.5127 15.6517C14.4996 15.6384 13.0967 15.091 13.0837 13.4497C13.0705 12.0754 14.1851 11.4217 14.2376 11.3812C13.6081 10.4343 12.6247 10.3275 12.2837 10.3007Z" fill="black"/>
<path d="M19.934 8.44068C21.8437 8.44068 23.1735 9.77959 23.1735 11.729C23.1735 13.6853 21.8163 15.0311 19.8862 15.0311H17.7718V18.4512H16.2441V8.44067L19.934 8.44068ZM17.7718 13.7269H19.5246C20.8547 13.7269 21.6116 12.9986 21.6116 11.7359C21.6116 10.4734 20.8547 9.75189 19.5315 9.75189H17.7718V13.7269Z" fill="black"/>
<path d="M23.5723 16.3769C23.5723 15.1003 24.5339 14.3165 26.2392 14.2193L28.2033 14.1014V13.5396C28.2033 12.7279 27.6645 12.2423 26.7644 12.2423C25.9116 12.2423 25.3796 12.6584 25.2501 13.3106H23.8588C23.9406 11.9924 25.0454 11.0212 26.8188 11.0212C28.558 11.0212 29.6696 11.9578 29.6696 13.4215V18.4511H28.2578V17.251H28.2238C27.8079 18.0627 26.9006 18.576 25.9595 18.576C24.5545 18.576 23.5723 17.688 23.5723 16.3769ZM28.2033 15.7179V15.1421L26.4368 15.253C25.5569 15.3155 25.0591 15.7109 25.0591 16.3353C25.0591 16.9734 25.5774 17.3897 26.3686 17.3897C27.3985 17.3897 28.2033 16.6682 28.2033 15.7179Z" fill="black"/>
<path d="M31.0023 21.1362V19.9221C31.1113 19.9498 31.3567 19.9498 31.4796 19.9498C32.1616 19.9498 32.53 19.6585 32.7549 18.9093C32.7549 18.8954 32.8846 18.4653 32.8846 18.4583L30.293 11.1533H31.8887L33.7032 17.0917H33.7303L35.5447 11.1533H37.0997L34.4123 18.8329C33.7987 20.602 33.0893 21.1708 31.6025 21.1708C31.4796 21.1708 31.1113 21.1569 31.0023 21.1362Z" fill="black"/>
</g>
<defs>
<clipPath id="clip0_12035_69457">
<rect width="43" height="28" fill="white"/>
</clipPath>
</defs>
</svg>
