<svg width="70" height="70" viewBox="0 0 70 70" fill="none" xmlns="http://www.w3.org/2000/svg">
<g clip-path="url(#clip0_9683_3679)">
<path d="M-2 46.5787L9.37315 51.0291C11.3649 51.8085 13.6036 51.6345 15.451 50.5568L23.9643 45.5908C26.3822 44.1804 29.1841 43.5708 31.9694 43.8493L43.5615 45.0086C45.3044 45.1828 46.6316 46.6494 46.6316 48.4009V48.4009C46.6316 50.4516 44.8343 52.0383 42.7994 51.7839L33.3703 50.6053C32.2788 50.4688 31.2508 51.1484 30.9486 52.206V52.206C30.565 53.5487 31.4951 54.9097 32.8854 55.04L50.4211 56.684L63.7148 49.2395C65.1437 48.4393 66.9442 48.8201 67.9268 50.1303V50.1303C69.0527 51.6315 68.6863 53.7703 67.125 54.8112L55.1965 62.7635C53.7136 63.7521 52.0396 64.4179 50.2828 64.7179L31.7235 67.8865C28.6449 68.4121 25.4897 68.2763 22.4677 67.4879L-2 61.105M15.0526 45.9471V25.7366H29.5789M56.1053 47.8419V25.7366H43.4737M31.4737 25.7366V39.6314M31.4737 25.7366H40.3158M31.4737 25.7366H29.5789M40.3158 25.7366V40.8945M40.3158 25.7366H43.4737M29.5789 16.2629H9.36842V25.7366H29.5789M29.5789 16.2629H35.8947H43.4737M29.5789 16.2629V20.9998V25.7366M29.5789 25.7366H43.4737M43.4737 16.2629H62.4211V25.7366H43.4737M43.4737 16.2629V25.7366" stroke="#1ED760" stroke-width="2.5" stroke-linecap="round" stroke-linejoin="round"/>
<path d="M30.8412 15.6316C27.3531 15.6316 24.5254 12.8039 24.5254 9.31579C24.5254 5.82768 27.3531 3 30.8412 3C34.3293 3 37.157 5.82768 37.157 9.31579V15.6316" stroke="#1ED760" stroke-width="2.5" stroke-linecap="round" stroke-linejoin="round"/>
<path d="M30.8418 15.6313H37.1576" stroke="#1ED760" stroke-width="2.5"/>
<path d="M49.7891 9.31579C49.7891 12.8039 46.9614 15.6316 43.4733 15.6316H37.1575V15.0574V9.31579C37.1575 5.82768 39.9852 3 43.4733 3C46.9614 3 49.7891 5.82768 49.7891 9.31579Z" stroke="#1ED760" stroke-width="2.5" stroke-linecap="round" stroke-linejoin="round"/>
</g>
<defs>
<clipPath id="clip0_9683_3679">
<rect width="70" height="67" fill="white" transform="translate(0 2)"/>
</clipPath>
</defs>
</svg>
